<?xml version="1.0" encoding="utf-8"?>
<!-- Generator: Adobe Illustrator 19.1.0, SVG Export Plug-In . SVG Version: 6.00 Build 0)  -->
<svg version="1.1" id="Modo_de_aislamiento" xmlns="http://www.w3.org/2000/svg" xmlns:xlink="http://www.w3.org/1999/xlink"
	 x="0px" y="0px" viewBox="0 0 180.7 70" style="enable-background:new 0 0 180.7 70;" xml:space="preserve">
<style type="text/css">
	.st0{fill:#000;}
</style>
<g>
	<g>
		<path class="st0" d="M47.3,0.2h4.6c0.7,0,1.3,0.1,1.8,0.3c0.6,0.2,1,0.4,1.4,0.8C55.5,1.6,55.8,2,56,2.5c0.2,0.5,0.3,1,0.3,1.6v0
			c0,0.7-0.1,1.2-0.4,1.7c-0.2,0.5-0.6,0.9-1,1.2c-0.4,0.3-0.9,0.6-1.5,0.8c-0.6,0.2-1.2,0.3-1.8,0.3h-2.3v3.8h-2V0.2z M51.7,6.3
			c0.8,0,1.4-0.2,1.8-0.6c0.5-0.4,0.7-0.9,0.7-1.5v0c0-0.7-0.2-1.2-0.7-1.6c-0.5-0.4-1.1-0.5-1.8-0.5h-2.4v4.2H51.7z"/>
		<path class="st0" d="M60.1,0.2h5.2c0.7,0,1.4,0.1,2,0.3c0.6,0.2,1,0.5,1.4,0.9c0.3,0.3,0.6,0.7,0.7,1.1c0.2,0.4,0.2,0.9,0.2,1.4v0
			c0,0.5-0.1,0.9-0.2,1.3c-0.1,0.4-0.3,0.7-0.6,1C68.6,6.5,68.3,6.8,68,7c-0.3,0.2-0.7,0.4-1.1,0.5l3.2,4.4h-2.4l-2.9-4.1h0h-2.5
			v4.1h-2V0.2z M65.1,6c0.7,0,1.3-0.2,1.8-0.5c0.4-0.4,0.7-0.8,0.7-1.4v0c0-0.6-0.2-1.1-0.6-1.4c-0.4-0.3-1-0.5-1.8-0.5h-3V6H65.1z"
			/>
		<path class="st0" d="M73.9,0.2h8.6v1.9H76v3h5.9v1.9H76V10h6.7v1.9h-8.7V0.2z"/>
		<path class="st0" d="M86.9,0.2h2.2l3.6,5.5l3.6-5.5h2.2v11.7h-2V3.5L92.7,9h-0.1L89,3.5v8.3h-2V0.2z"/>
		<path class="st0" d="M103.3,0.2h2v11.7h-2V0.2z"/>
		<path class="st0" d="M115.7,12.1c-0.9,0-1.7-0.2-2.5-0.5c-0.7-0.3-1.4-0.7-1.9-1.3c-0.5-0.5-1-1.2-1.3-1.9
			c-0.3-0.7-0.5-1.5-0.5-2.3v0c0-0.8,0.2-1.6,0.5-2.3c0.3-0.7,0.7-1.4,1.3-1.9c0.5-0.6,1.2-1,1.9-1.3c0.7-0.3,1.6-0.5,2.5-0.5
			s1.7,0.2,2.5,0.5c0.7,0.3,1.4,0.7,1.9,1.3c0.5,0.5,1,1.2,1.2,1.9c0.3,0.7,0.5,1.5,0.5,2.3v0c0,0.8-0.1,1.6-0.5,2.3
			c-0.3,0.7-0.7,1.4-1.3,1.9c-0.5,0.6-1.2,1-1.9,1.3C117.4,11.9,116.6,12.1,115.7,12.1z M115.7,10.2c0.6,0,1.1-0.1,1.6-0.3
			c0.5-0.2,0.9-0.5,1.2-0.9c0.3-0.4,0.6-0.8,0.8-1.3c0.2-0.5,0.3-1,0.3-1.6v0c0-0.6-0.1-1.1-0.3-1.6c-0.2-0.5-0.5-0.9-0.8-1.3
			c-0.3-0.4-0.8-0.7-1.3-0.9c-0.5-0.2-1-0.3-1.6-0.3c-0.6,0-1.1,0.1-1.6,0.3c-0.5,0.2-0.9,0.5-1.2,0.9c-0.3,0.4-0.6,0.8-0.8,1.3
			c-0.2,0.5-0.3,1-0.3,1.6v0c0,0.6,0.1,1.1,0.3,1.6c0.2,0.5,0.5,0.9,0.8,1.3c0.3,0.4,0.8,0.7,1.3,0.9
			C114.6,10.1,115.2,10.2,115.7,10.2z"/>
		<path class="st0" d="M129.9,12c-0.9,0-1.8-0.2-2.6-0.5c-0.8-0.3-1.6-0.8-2.3-1.4l1.2-1.5c0.6,0.5,1.1,0.9,1.7,1.1
			c0.6,0.3,1.2,0.4,2,0.4c0.6,0,1.1-0.1,1.5-0.4c0.4-0.3,0.6-0.6,0.6-1.1v0c0-0.2,0-0.4-0.1-0.6c-0.1-0.2-0.2-0.3-0.4-0.5
			c-0.2-0.1-0.5-0.3-0.8-0.4c-0.3-0.1-0.8-0.2-1.3-0.4c-0.6-0.1-1.2-0.3-1.7-0.5c-0.5-0.2-0.9-0.4-1.2-0.7c-0.3-0.3-0.6-0.6-0.8-1
			c-0.2-0.4-0.3-0.8-0.3-1.4v0c0-0.5,0.1-1,0.3-1.4c0.2-0.4,0.5-0.8,0.8-1.1c0.3-0.3,0.8-0.5,1.3-0.7c0.5-0.2,1-0.2,1.6-0.2
			c0.9,0,1.6,0.1,2.3,0.4c0.7,0.2,1.3,0.6,1.9,1.1l-1.1,1.6c-0.5-0.4-1.1-0.7-1.6-0.9c-0.5-0.2-1.1-0.3-1.6-0.3
			c-0.6,0-1.1,0.1-1.4,0.4c-0.3,0.3-0.5,0.6-0.5,1v0c0,0.2,0,0.4,0.1,0.6c0.1,0.2,0.2,0.3,0.4,0.5c0.2,0.1,0.5,0.3,0.9,0.4
			c0.4,0.1,0.8,0.3,1.4,0.4c0.6,0.2,1.2,0.3,1.6,0.5c0.5,0.2,0.9,0.4,1.2,0.7s0.5,0.6,0.7,1c0.2,0.4,0.2,0.8,0.2,1.3v0
			c0,0.5-0.1,1-0.3,1.5c-0.2,0.4-0.5,0.8-0.9,1.1c-0.4,0.3-0.8,0.5-1.3,0.7C131.1,12,130.5,12,129.9,12z"/>
	</g>
	<path class="st0" d="M23.5,70c-3.7,0-7-0.6-9.9-1.9c-2.9-1.3-5.4-3-7.4-5.2c-2-2.2-3.5-4.7-4.6-7.6C0.5,52.4,0,49.3,0,46v-0.1
		c0-3.2,0.5-6.2,1.6-9.1c1.1-2.9,2.6-5.5,4.7-7.7c2-2.2,4.5-4,7.3-5.3c2.8-1.3,6-2,9.5-2c1.9,0,3.7,0.1,5.2,0.4
		c1.6,0.3,3,0.7,4.4,1.2c1.4,0.5,2.6,1.2,3.9,1.9c1.2,0.8,2.4,1.6,3.6,2.6l-2.3,2.6c-1.8-1.6-3.9-2.9-6.2-4
		c-2.3-1.1-5.3-1.6-8.8-1.6c-2.8,0-5.4,0.6-7.8,1.7c-2.4,1.1-4.4,2.6-6.1,4.5c-1.7,1.9-3,4.1-4,6.7s-1.4,5.2-1.4,8v0.1
		c0,3,0.5,5.8,1.4,8.4c0.9,2.6,2.2,4.8,4,6.7c1.7,1.9,3.8,3.3,6.3,4.4c2.5,1.1,5.3,1.6,8.4,1.6c1.5,0,2.9-0.1,4.3-0.4
		c1.4-0.3,2.8-0.7,4-1.2c1.3-0.5,2.5-1.1,3.6-1.7c1.1-0.6,2.1-1.3,2.9-2V48.2H22.9v-3.1h18.9v18c-2.1,1.9-4.8,3.5-7.9,4.9
		C30.8,69.3,27.3,70,23.5,70z"/>
	<path class="st0" d="M117.1,50.8l-20-28.2h4.3l17.5,25.1l17.5-25.1h4.1l-20,28.1v18.5h-3.5V50.8z"/>
	<g>
		<path class="st0" d="M169.5,53l0.1,0.2c1.1-0.3,2-0.9,2.8-1.9L159,22.2h-3.3l-21.7,47h3.6l5.9-13.1l1.5-3.1l12.3-27L169.5,53z"/>
		<path class="st0" d="M172.9,60.3l4.1,9h3.8l-5.1-11.1C174.8,59,173.8,59.7,172.9,60.3z"/>
	</g>
	<path class="st0" d="M165.4,60.2c-2.3,0-4.6-1.3-6.8-2.6l-0.5-0.3c-2.4-1.4-5-3-8.2-3c-3.6,0-6.4,1.7-7.8,4.7
		c-0.2,0.4-0.6,0.7-0.7,1.1H140c2.4-6.7,6.5-10.1,12.3-10.1c3.1,0,5.9,1.4,8.6,2.7l0.7,0.4c2.4,1.3,4.7,2.5,6.9,2.5
		c4,0,6.1-3,7.7-5.4l0.1-0.2h2C175.8,56.3,170.9,60.2,165.4,60.2z"/>
	<g>
		<path class="st0" d="M177.2,27.4c-0.4,0-0.7-0.1-1-0.2c-0.3-0.1-0.6-0.3-0.8-0.6c-0.2-0.2-0.4-0.5-0.6-0.8c-0.1-0.3-0.2-0.7-0.2-1
			v0c0-0.4,0.1-0.7,0.2-1c0.1-0.3,0.3-0.6,0.6-0.8c0.2-0.2,0.5-0.4,0.8-0.6c0.3-0.1,0.7-0.2,1-0.2c0.4,0,0.7,0.1,1,0.2
			c0.3,0.1,0.6,0.3,0.8,0.6c0.2,0.2,0.4,0.5,0.6,0.8c0.1,0.3,0.2,0.7,0.2,1v0c0,0.4-0.1,0.7-0.2,1c-0.1,0.3-0.3,0.6-0.6,0.8
			c-0.2,0.2-0.5,0.4-0.8,0.6C177.9,27.4,177.5,27.4,177.2,27.4z M177.2,27.2c0.3,0,0.6-0.1,0.9-0.2c0.3-0.1,0.5-0.3,0.7-0.5
			c0.2-0.2,0.4-0.5,0.5-0.7c0.1-0.3,0.2-0.6,0.2-0.9v0c0-0.3-0.1-0.6-0.2-0.9c-0.1-0.3-0.3-0.5-0.5-0.7c-0.2-0.2-0.4-0.4-0.7-0.5
			c-0.3-0.1-0.6-0.2-0.9-0.2c-0.3,0-0.6,0.1-0.9,0.2c-0.3,0.1-0.5,0.3-0.7,0.5c-0.2,0.2-0.4,0.5-0.5,0.7c-0.1,0.3-0.2,0.6-0.2,0.9v0
			c0,0.3,0.1,0.6,0.2,0.9c0.1,0.3,0.3,0.5,0.5,0.7c0.2,0.2,0.5,0.4,0.7,0.5C176.5,27.1,176.8,27.2,177.2,27.2z M176.1,23.4h1.2
			c0.4,0,0.7,0.1,0.9,0.3c0.2,0.2,0.2,0.4,0.2,0.6v0c0,0.2-0.1,0.4-0.2,0.6c-0.1,0.1-0.3,0.2-0.4,0.3l0.7,1h-0.7l-0.6-0.9h0h-0.5
			v0.9h-0.6V23.4z M177.3,24.7c0.2,0,0.3,0,0.4-0.1c0.1-0.1,0.1-0.2,0.1-0.3v0c0-0.1,0-0.2-0.1-0.3c-0.1-0.1-0.2-0.1-0.4-0.1h-0.6
			v0.8H177.3z"/>
	</g>
	<path class="st0" d="M72.5,70c-3.6,0-6.8-0.7-9.6-2c-2.9-1.3-5.3-3.1-7.4-5.3c-2-2.2-3.6-4.7-4.7-7.6c-1.1-2.9-1.7-5.9-1.7-9.1
		v-0.1c0-3.2,0.6-6.3,1.7-9.2c1.1-2.9,2.7-5.5,4.8-7.7c2-2.2,4.5-4,7.4-5.3c2.9-1.3,6.1-2,9.7-2c3.5,0,6.7,0.7,9.6,2
		c2.9,1.3,5.4,3.1,7.4,5.3c2,2.2,3.6,4.7,4.7,7.6c1.1,2.9,1.7,5.9,1.7,9.1c0,0,0,0.1,0,0.1c0,3.2-0.6,6.3-1.7,9.2
		c-1.1,2.9-2.7,5.5-4.8,7.7c-2,2.2-4.5,4-7.4,5.3C79.3,69.4,76,70,72.5,70z M72.7,66.9c2.9,0,5.5-0.5,8-1.6c2.4-1.1,4.5-2.6,6.3-4.5
		c1.8-1.9,3.1-4.1,4.1-6.6c1-2.5,1.5-5.2,1.5-8.1v-0.1c0-2.9-0.5-5.6-1.5-8.2c-1-2.6-2.4-4.8-4.1-6.7c-1.8-1.9-3.9-3.4-6.3-4.5
		c-2.4-1.1-5.1-1.7-8-1.7c-2.9,0-5.5,0.5-8,1.6c-2.4,1.1-4.5,2.6-6.3,4.5c-1.8,1.9-3.1,4.1-4.1,6.6c-1,2.5-1.5,5.2-1.5,8.1v0.1
		c0,2.9,0.5,5.6,1.5,8.2c1,2.6,2.4,4.8,4.1,6.7c1.8,1.9,3.9,3.4,6.3,4.5C67.1,66.3,69.8,66.9,72.7,66.9z"/>
</g>
</svg>
